<svg width="25" height="24" viewBox="0 0 25 24" fill="none" xmlns="http://www.w3.org/2000/svg">
<path d="M19.2368 21.9568L14.2725 23.1766L9.92869 22.8716L4.96438 20.7369L1.86168 17.6874L0.620605 13.113L1.24114 8.53871L3.41303 4.87924L7.44653 1.52473L10.8595 0.609863L14.2725 0.914819L17.9957 2.4396L21.4087 4.87924L23.2703 8.53871L24.5113 11.2833L24.2011 14.9428L22.3395 19.5171L19.2368 21.9568Z" fill="white"/>
<path fill-rule="evenodd" clip-rule="evenodd" d="M19.4959 11.5736C19.5288 11.8478 19.3333 12.0967 19.0591 12.1297L18.9995 11.6333L18.9398 11.1368C19.214 11.1039 19.4629 11.2994 19.4959 11.5736ZM9.8534 12.48C10.4231 12.4801 11.0108 12.4877 11.6059 12.4954C12.8301 12.5112 14.0858 12.5274 15.281 12.4796C15.9387 12.4533 16.8875 12.365 17.6619 12.2848C18.0513 12.2444 18.4003 12.2057 18.6519 12.177C18.7778 12.1627 18.8794 12.1509 18.9496 12.1427L19.0306 12.1331L19.0591 12.1297L18.9995 11.6333L18.9398 11.1368L18.9125 11.1401L18.8331 11.1495C18.7639 11.1576 18.6634 11.1693 18.5388 11.1835C18.2896 11.2118 17.9441 11.2502 17.5588 11.2901C16.7842 11.3704 15.8637 11.4555 15.241 11.4804C14.0713 11.5272 12.8637 11.5115 11.6557 11.4958C11.0499 11.4879 10.4439 11.48 9.84258 11.48C9.83535 11.48 9.82812 11.4801 9.8209 11.4805L6.17608 11.6387C6.34302 11.4648 6.52508 11.277 6.711 11.0867C7.06779 10.7215 7.43671 10.3492 7.73735 10.0516C8.04955 9.74253 8.26206 9.5403 8.32298 9.49156C8.4839 9.36283 8.82049 9.0302 9.20518 8.6392C9.60172 8.23615 10.0794 7.7398 10.5393 7.2581C10.9994 6.77611 11.4428 6.30752 11.7711 5.95951C11.9353 5.78547 12.0708 5.64153 12.1652 5.54107L12.3126 5.38416C12.5014 5.1827 12.4919 4.86559 12.2904 4.67673C12.0889 4.48787 11.7725 4.49808 11.5837 4.69954L11.4366 4.85615C11.3425 4.95624 11.2075 5.09974 11.0437 5.27329C10.7162 5.62042 10.2743 6.0875 9.81596 6.5676C9.35737 7.04798 8.88366 7.54012 8.49234 7.93787C8.08917 8.34766 7.80148 8.62814 7.69828 8.71069C7.58569 8.80077 7.32779 9.04991 7.03384 9.34089C6.72832 9.64332 6.35536 10.0197 5.99568 10.3879C5.63625 10.7558 5.28799 11.1177 5.03233 11.3908C4.90519 11.5267 4.79745 11.6443 4.722 11.7309C4.68564 11.7727 4.64968 11.8153 4.6218 11.8524C4.61038 11.8675 4.58629 11.9 4.56474 11.9395C4.55686 11.9539 4.52798 12.0067 4.51205 12.0792C4.50417 12.115 4.48994 12.196 4.51187 12.296C4.53537 12.4031 4.59975 12.5217 4.71862 12.6027C6.17433 13.6327 7.79509 15.2746 9.06683 16.6813C9.70003 17.3817 10.2403 18.0165 10.622 18.476C10.8129 18.7057 10.9639 18.8913 11.067 19.0193C11.1186 19.0832 11.1581 19.1327 11.1846 19.1661L11.2145 19.2037L11.2218 19.2131L11.2236 19.2153C11.2236 19.2153 11.2236 19.2153 11.2236 19.2153C11.3942 19.4324 11.709 19.4707 11.9261 19.3001C12.1432 19.1295 12.1809 18.8152 12.0103 18.598L11.6172 18.9069C12.0103 18.598 12.0104 18.5981 12.0103 18.598L12.0073 18.5941L11.999 18.5837L11.9673 18.5436C11.9395 18.5087 11.8986 18.4575 11.8457 18.3918C11.7398 18.2604 11.5855 18.0708 11.3912 17.8369C11.0027 17.3693 10.4532 16.7237 9.80861 16.0107C8.82305 14.9205 7.59972 13.6557 6.3815 12.6307L9.8534 12.48Z" fill="#282828"/>
<path fill-rule="evenodd" clip-rule="evenodd" d="M8.78977 0.423334C9.7721 0.120977 10.7897 -0.00382102 12.0588 8.89122e-05C14.7715 0.00844603 16.3428 0.82356 18.5176 2.22268C21.4486 4.10828 23.5337 6.23863 24.6659 9.57726C25.3639 11.6352 24.8242 13.7629 24.3526 15.6227C24.3077 15.7998 24.2634 15.9745 24.2208 16.1464C23.4038 19.4478 21.0194 22.3957 17.6139 23.3998C15.6273 23.9856 13.2771 24.1398 11.0222 23.8747C8.77052 23.61 6.56128 22.9209 4.88064 21.7718C2.60647 20.2168 1.14837 17.7616 0.341304 15.1174C-0.186225 13.3891 -0.0501137 10.826 0.395233 9.15467C0.838564 7.49095 1.72343 5.529 3.00917 4.21667C3.81384 3.39536 4.63705 2.55931 5.84113 1.83191C6.90187 1.1911 7.81261 0.724104 8.78977 0.423334ZM9.16694 1.60709C8.33435 1.86336 7.52591 2.27013 6.50199 2.88869C5.44971 3.52439 4.72493 4.25374 3.91826 5.07709C2.83576 6.18197 2.02834 7.92195 1.61611 9.46895C1.21077 10.9901 1.10767 13.3113 1.55014 14.761C2.30433 17.2319 3.6327 19.4074 5.60135 20.7535C7.06542 21.7545 9.0601 22.3948 11.1721 22.643C13.2809 22.8909 15.4541 22.7416 17.2513 22.2117C20.1477 21.3576 22.262 18.813 22.9945 15.8533C23.0344 15.6919 23.0746 15.5317 23.1146 15.3726C23.5994 13.4406 24.0444 11.6673 23.4686 9.96953C22.4523 6.97273 20.599 5.04427 17.8264 3.26056C15.73 1.91185 14.4071 1.24777 12.0549 1.24053C10.8771 1.2369 9.99437 1.35241 9.16694 1.60709Z" fill="#282828"/>
</svg>
