<svg width="25" height="24" viewBox="0 0 25 24" fill="none" xmlns="http://www.w3.org/2000/svg">
<path d="M5.76323 21.9568L10.7275 23.1766L15.0713 22.8716L20.0356 20.7369L23.1383 17.6874L24.3794 13.113L23.7589 8.53871L21.587 4.87924L17.5535 1.52473L14.1405 0.609863L10.7275 0.914819L7.00431 2.4396L3.59135 4.87924L1.72973 8.53871L0.488655 11.2833L0.798923 14.9428L2.66054 19.5171L5.76323 21.9568Z" fill="white"/>
<path fill-rule="evenodd" clip-rule="evenodd" d="M5.50411 11.5736C5.47115 11.8478 5.66669 12.0967 5.94086 12.1297L6.00054 11.6333L6.06022 11.1368C5.78605 11.1039 5.53707 11.2994 5.50411 11.5736ZM15.1466 12.48C14.5769 12.4801 13.9892 12.4877 13.3941 12.4954C12.1699 12.5112 10.9142 12.5274 9.71901 12.4796C9.06131 12.4533 8.11255 12.365 7.33807 12.2848C6.94872 12.2444 6.59974 12.2057 6.34808 12.177C6.22222 12.1627 6.12062 12.1509 6.05039 12.1427L5.96945 12.1331L5.94086 12.1297L6.00054 11.6333L6.06022 11.1368L6.08746 11.1401L6.16693 11.1495C6.23613 11.1576 6.33657 11.1693 6.46115 11.1835C6.71039 11.2118 7.05594 11.2502 7.44116 11.2901C8.21582 11.3704 9.13628 11.4555 9.75898 11.4804C10.9287 11.5272 12.1363 11.5115 13.3443 11.4958C13.9501 11.4879 14.5561 11.48 15.1574 11.48C15.1647 11.48 15.1719 11.4801 15.1791 11.4805L18.8239 11.6387C18.657 11.4648 18.4749 11.277 18.289 11.0867C17.9322 10.7215 17.5633 10.3492 17.2627 10.0516C16.9504 9.74253 16.7379 9.5403 16.677 9.49156C16.5161 9.36283 16.1795 9.0302 15.7948 8.6392C15.3983 8.23615 14.9206 7.7398 14.4607 7.2581C14.0006 6.77611 13.5572 6.30752 13.2289 5.95951C13.0647 5.78547 12.9292 5.64153 12.8348 5.54107L12.6874 5.38416C12.4986 5.1827 12.5081 4.86559 12.7096 4.67673C12.9111 4.48787 13.2275 4.49808 13.4163 4.69954L13.5634 4.85615C13.6575 4.95624 13.7925 5.09974 13.9563 5.27329C14.2838 5.62042 14.7257 6.0875 15.184 6.5676C15.6426 7.04798 16.1163 7.54012 16.5077 7.93787C16.9108 8.34766 17.1985 8.62814 17.3017 8.71069C17.4143 8.80077 17.6722 9.04991 17.9662 9.34089C18.2717 9.64332 18.6446 10.0197 19.0043 10.3879C19.3637 10.7558 19.712 11.1177 19.9677 11.3908C20.0948 11.5267 20.2025 11.6443 20.278 11.7309C20.3144 11.7727 20.3503 11.8153 20.3782 11.8524C20.3896 11.8675 20.4137 11.9 20.4353 11.9395C20.4431 11.9539 20.472 12.0067 20.4879 12.0792C20.4958 12.115 20.5101 12.196 20.4881 12.296C20.4646 12.4031 20.4002 12.5217 20.2814 12.6027C18.8257 13.6327 17.2049 15.2746 15.9332 16.6813C15.3 17.3817 14.7597 18.0165 14.378 18.476C14.1871 18.7057 14.0361 18.8913 13.933 19.0193C13.8814 19.0832 13.8419 19.1327 13.8154 19.1661L13.7855 19.2037L13.7782 19.2131L13.7764 19.2153C13.7764 19.2153 13.7764 19.2153 13.7764 19.2153C13.6058 19.4324 13.291 19.4707 13.0739 19.3001C12.8568 19.1295 12.8191 18.8152 12.9897 18.598L13.3828 18.9069C12.9897 18.598 12.9896 18.5981 12.9897 18.598L12.9927 18.5941L13.001 18.5837L13.0327 18.5436C13.0605 18.5087 13.1014 18.4575 13.1543 18.3918C13.2602 18.2604 13.4145 18.0708 13.6088 17.8369C13.9973 17.3693 14.5468 16.7237 15.1914 16.0107C16.177 14.9205 17.4003 13.6557 18.6185 12.6307L15.1466 12.48Z" fill="#282828"/>
<path fill-rule="evenodd" clip-rule="evenodd" d="M16.2102 0.423334C15.2279 0.120977 14.2103 -0.00382102 12.9412 8.89122e-05C10.2285 0.00844603 8.65722 0.82356 6.48242 2.22268C3.55144 4.10828 1.46633 6.23863 0.334059 9.57726C-0.363857 11.6352 0.175764 13.7629 0.647409 15.6227C0.692327 15.7998 0.736629 15.9745 0.779188 16.1464C1.59621 19.4478 3.98062 22.3957 7.3861 23.3998C9.37267 23.9856 11.7229 24.1398 13.9778 23.8747C16.2295 23.61 18.4387 22.9209 20.1194 21.7718C22.3935 20.2168 23.8516 17.7616 24.6587 15.1174C25.1862 13.3891 25.0501 10.826 24.6048 9.15467C24.1614 7.49095 23.2766 5.529 21.9908 4.21667C21.1862 3.39536 20.3629 2.55931 19.1589 1.83191C18.0981 1.1911 17.1874 0.724104 16.2102 0.423334ZM15.8331 1.60709C16.6656 1.86336 17.4741 2.27013 18.498 2.88869C19.5503 3.52439 20.2751 4.25374 21.0817 5.07709C22.1642 6.18197 22.9717 7.92195 23.3839 9.46895C23.7892 10.9901 23.8923 13.3113 23.4499 14.761C22.6957 17.2319 21.3673 19.4074 19.3986 20.7535C17.9346 21.7545 15.9399 22.3948 13.8279 22.643C11.7191 22.8909 9.54591 22.7416 7.74874 22.2117C4.85227 21.3576 2.73796 18.813 2.00549 15.8533C1.96556 15.6919 1.92535 15.5317 1.88542 15.3726C1.40058 13.4406 0.95557 11.6673 1.53135 9.96953C2.54769 6.97273 4.40101 5.04427 7.1736 3.26056C9.27003 1.91185 10.5929 1.24777 12.9451 1.24053C14.1229 1.2369 15.0056 1.35241 15.8331 1.60709Z" fill="#282828"/>
</svg>
