<svg width="24" height="25" viewBox="0 0 24 25" fill="none" xmlns="http://www.w3.org/2000/svg">
<path fill-rule="evenodd" clip-rule="evenodd" d="M4 12.5C4.00014 10.9605 4.44451 9.45364 5.27979 8.16038C6.11506 6.86712 7.30576 5.84234 8.70901 5.20901C10.1123 4.57568 11.6684 4.3607 13.1908 4.58987C14.7132 4.81904 16.1372 5.48262 17.2918 6.50099C18.4464 7.51936 19.2826 8.84926 19.7002 10.3311C20.1177 11.813 20.0988 13.3838 19.6457 14.8552C19.1926 16.3265 18.3246 17.6359 17.1458 18.6262C15.967 19.6165 14.5275 20.2456 13 20.438V14.5H15C15.2652 14.5 15.5196 14.3946 15.7071 14.2071C15.8946 14.0196 16 13.7652 16 13.5C16 13.2348 15.8946 12.9804 15.7071 12.7929C15.5196 12.6054 15.2652 12.5 15 12.5H13V10.5C13 10.2348 13.1054 9.98043 13.2929 9.79289C13.4804 9.60536 13.7348 9.5 14 9.5H14.5C14.7652 9.5 15.0196 9.39464 15.2071 9.20711C15.3946 9.01957 15.5 8.76522 15.5 8.5C15.5 8.23478 15.3946 7.98043 15.2071 7.79289C15.0196 7.60536 14.7652 7.5 14.5 7.5H14C13.2044 7.5 12.4413 7.81607 11.8787 8.37868C11.3161 8.94129 11 9.70435 11 10.5V12.5H9C8.73478 12.5 8.48043 12.6054 8.29289 12.7929C8.10536 12.9804 8 13.2348 8 13.5C8 13.7652 8.10536 14.0196 8.29289 14.2071C8.48043 14.3946 8.73478 14.5 9 14.5H11V20.438C9.0667 20.1942 7.28882 19.2533 6 17.7917C4.71119 16.3302 4.00003 14.4486 4 12.5ZM12 22.5C17.523 22.5 22 18.023 22 12.5C22 6.977 17.523 2.5 12 2.5C6.477 2.5 2 6.977 2 12.5C2 18.023 6.477 22.5 12 22.5Z" fill="black"/>
</svg>
