<svg width="24" height="25" viewBox="0 0 24 25" fill="none" xmlns="http://www.w3.org/2000/svg">
<path fill-rule="evenodd" clip-rule="evenodd" d="M4.37284 4.69599C5.48121 3.99596 6.75523 3.77621 8.06039 4.21126C9.73534 4.76958 10.8159 5.78587 11.9014 6.91748C12.8841 5.45837 14.4722 4.61873 16.4277 4.61873C18.0269 4.61873 19.4021 4.81996 20.3796 5.51423C21.3999 6.23882 21.88 7.41601 21.88 9.08771C21.88 9.94196 21.4232 10.9669 20.9201 11.8513C20.4031 12.7601 19.7794 13.6174 19.341 14.1654C18.5608 15.1407 17.7347 15.8889 16.9409 16.6079L16.8995 16.6454C16.0879 17.3805 15.31 18.0898 14.5828 19.0154C14.3123 19.3597 13.7533 20.0001 13.2725 20.5432C13.0298 20.8172 12.8036 21.0704 12.6381 21.2551C12.5553 21.3475 12.4876 21.4227 12.4406 21.4749L12.3674 21.5561C12.2663 21.6681 12.1197 21.7288 11.969 21.7206C11.8183 21.7124 11.6794 21.6367 11.5909 21.5144C11.3653 21.2026 11.0703 20.9109 10.7367 20.5867C10.723 20.5734 10.7092 20.56 10.6954 20.5465C10.3926 20.2524 10.0594 19.9287 9.78509 19.5721C7.69672 17.4813 6.60216 16.066 5.16736 14.2107C4.87779 13.8363 4.57435 13.4439 4.24608 13.0245C4.23557 13.011 4.22502 12.9976 4.21442 12.984C3.74425 12.3834 3.20073 11.689 2.78997 10.933C2.36765 10.1557 2.06338 9.27478 2.12904 8.31221C2.18438 7.50109 2.39623 6.80744 2.78252 6.20308C3.16694 5.60164 3.70576 5.1173 4.37284 4.69599Z" fill="#E62C33"/>
</svg>
