<svg width="24" height="25" viewBox="0 0 24 25" fill="none" xmlns="http://www.w3.org/2000/svg">
<path fill-rule="evenodd" clip-rule="evenodd" d="M4.37284 4.92774C5.48121 4.22771 6.75523 4.00796 8.06039 4.44301C9.73534 5.00133 10.8159 6.01762 11.9014 7.14923C12.8841 5.69012 14.4722 4.85048 16.4277 4.85048C18.0269 4.85048 19.4021 5.05171 20.3796 5.74598C21.3999 6.47057 21.88 7.64776 21.88 9.31946C21.88 10.1737 21.4232 11.1986 20.9201 12.0831C20.4031 12.9918 19.7794 13.8492 19.341 14.3972C18.5608 15.3725 17.7347 16.1206 16.9409 16.8396L16.8995 16.8771C16.0879 17.6122 15.31 18.3216 14.5828 19.2472C14.3123 19.5915 13.7533 20.2319 13.2725 20.775C13.0298 21.049 12.8036 21.3022 12.6381 21.4869C12.5553 21.5792 12.4876 21.6545 12.4406 21.7067L12.3674 21.7878C12.2663 21.8998 12.1197 21.9605 11.969 21.9524C11.8183 21.9442 11.6794 21.8684 11.5909 21.7462C11.3653 21.4344 11.0703 21.1427 10.7367 20.8185C10.723 20.8051 10.7092 20.7917 10.6954 20.7783C10.3926 20.4842 10.0594 20.1605 9.78509 19.8038C7.69672 17.713 6.60216 16.2977 5.16736 14.4425C4.87779 14.068 4.57435 13.6757 4.24608 13.2562C4.23557 13.2428 4.22502 13.2293 4.21442 13.2158C3.74425 12.6151 3.20073 11.9208 2.78997 11.1647C2.36765 10.3875 2.06338 9.50653 2.12904 8.54396C2.18438 7.73284 2.39623 7.03919 2.78252 6.43483C3.16694 5.83339 3.70576 5.34905 4.37284 4.92774ZM12.0119 20.6871C12.159 20.5227 12.3365 20.3236 12.5238 20.1121C13.0099 19.563 13.5477 18.9459 13.7965 18.6293C14.5826 17.6289 15.4201 16.8679 16.2281 16.136L16.25 16.1162C17.0553 15.3868 17.8304 14.6847 18.5601 13.7725C18.9756 13.2532 19.5667 12.4397 20.0509 11.5886C20.549 10.7131 20.88 9.88898 20.88 9.31946C20.88 7.84091 20.4656 7.03361 19.8006 6.56128C19.0928 6.05861 17.992 5.85048 16.4277 5.85048C14.5795 5.85048 13.1925 6.72428 12.4417 8.2006C12.3681 8.34537 12.2288 8.44536 12.068 8.46875C11.9073 8.49213 11.7452 8.436 11.6334 8.31821L11.6055 8.28876C10.3442 6.96016 9.36953 5.93349 7.74416 5.3917C6.75105 5.06066 5.78719 5.21721 4.90683 5.77323C4.32604 6.14005 3.90943 6.52855 3.62511 6.97338C3.34266 7.41528 3.17248 7.94132 3.12672 8.61202C3.07862 9.31723 3.2978 10.0048 3.66865 10.6873C4.03919 11.3693 4.53882 12.0077 5.02341 12.6269L5.03359 12.6399C5.36705 13.066 5.67359 13.4623 5.96466 13.8386C7.40032 15.6947 8.45956 17.0641 10.5159 19.1204C10.5321 19.1366 10.5472 19.1539 10.561 19.1722C10.7924 19.478 11.0864 19.7638 11.4153 20.0835L11.4338 20.1014C11.6219 20.2843 11.8217 20.479 12.0119 20.6871Z" fill="#282828"/>
</svg>
