<svg width="24" height="25" viewBox="0 0 24 25" fill="none" xmlns="http://www.w3.org/2000/svg">
<path fill-rule="evenodd" clip-rule="evenodd" d="M16 3.5C17.3261 3.5 18.5979 4.02678 19.5355 4.96447C20.4732 5.90215 21 7.17392 21 8.5V16.5C21 17.8261 20.4732 19.0979 19.5355 20.0355C18.5979 20.9732 17.3261 21.5 16 21.5H8C6.67392 21.5 5.40215 20.9732 4.46447 20.0355C3.52678 19.0979 3 17.8261 3 16.5V8.5C3 7.17392 3.52678 5.90215 4.46447 4.96447C5.40215 4.02678 6.67392 3.5 8 3.5H16ZM16 5.5H8C7.20435 5.5 6.44129 5.81607 5.87868 6.37868C5.31607 6.94129 5 7.70435 5 8.5V16.5C5 17.2956 5.31607 18.0587 5.87868 18.6213C6.44129 19.1839 7.20435 19.5 8 19.5H16C16.7956 19.5 17.5587 19.1839 18.1213 18.6213C18.6839 18.0587 19 17.2956 19 16.5V8.5C19 7.70435 18.6839 6.94129 18.1213 6.37868C17.5587 5.81607 16.7956 5.5 16 5.5ZM12 8.5C13.0609 8.5 14.0783 8.92143 14.8284 9.67157C15.5786 10.4217 16 11.4391 16 12.5C16 13.5609 15.5786 14.5783 14.8284 15.3284C14.0783 16.0786 13.0609 16.5 12 16.5C10.9391 16.5 9.92172 16.0786 9.17157 15.3284C8.42143 14.5783 8 13.5609 8 12.5C8 11.4391 8.42143 10.4217 9.17157 9.67157C9.92172 8.92143 10.9391 8.5 12 8.5ZM12 10.5C11.4696 10.5 10.9609 10.7107 10.5858 11.0858C10.2107 11.4609 10 11.9696 10 12.5C10 13.0304 10.2107 13.5391 10.5858 13.9142C10.9609 14.2893 11.4696 14.5 12 14.5C12.5304 14.5 13.0391 14.2893 13.4142 13.9142C13.7893 13.5391 14 13.0304 14 12.5C14 11.9696 13.7893 11.4609 13.4142 11.0858C13.0391 10.7107 12.5304 10.5 12 10.5ZM16.5 7C16.7652 7 17.0196 7.10536 17.2071 7.29289C17.3946 7.48043 17.5 7.73478 17.5 8C17.5 8.26522 17.3946 8.51957 17.2071 8.70711C17.0196 8.89464 16.7652 9 16.5 9C16.2348 9 15.9804 8.89464 15.7929 8.70711C15.6054 8.51957 15.5 8.26522 15.5 8C15.5 7.73478 15.6054 7.48043 15.7929 7.29289C15.9804 7.10536 16.2348 7 16.5 7Z" fill="black"/>
</svg>
