<svg width="24" height="25" viewBox="0 0 24 25" fill="none" xmlns="http://www.w3.org/2000/svg">
<path d="M10.2322 10.7311C11.1394 9.82399 12.3604 9.30028 13.6429 9.26827C14.9253 9.23625 16.171 9.69838 17.1222 10.5591L17.3032 10.7311L20.1312 13.5601C21.0523 14.4827 21.5765 15.7286 21.5922 17.0322C21.6079 18.3358 21.1138 19.594 20.2153 20.5386C19.3167 21.4832 18.0848 22.0395 16.782 22.0889C15.4793 22.1383 14.2087 21.6769 13.2412 20.8031L13.0612 20.6311L10.9392 18.5091C10.7599 18.3291 10.6558 18.0876 10.648 17.8337C10.6402 17.5797 10.7294 17.3323 10.8975 17.1418C11.0655 16.9512 11.2998 16.8317 11.5527 16.8077C11.8056 16.7836 12.0582 16.8566 12.2592 17.0121L12.3532 17.0951L14.4752 19.2171C15.0253 19.7703 15.7693 20.0876 16.5494 20.1014C17.3294 20.1153 18.0842 19.8247 18.6536 19.2914C19.223 18.758 19.5622 18.0238 19.5993 17.2445C19.6364 16.4652 19.3684 15.7021 18.8522 15.1171L18.7172 14.9741L15.8892 12.1461C15.6106 11.8674 15.2799 11.6464 14.9159 11.4956C14.5519 11.3448 14.1617 11.2672 13.7677 11.2672C13.3737 11.2672 12.9836 11.3448 12.6196 11.4956C12.2556 11.6464 11.9248 11.8674 11.6462 12.1461C11.4586 12.3336 11.2041 12.4388 10.9389 12.4388C10.6736 12.4387 10.4192 12.3332 10.2317 12.1456C10.0442 11.9579 9.93893 11.7035 9.93903 11.4382C9.93912 11.1729 10.0446 10.9186 10.2322 10.7311ZM3.86823 4.36705C4.77536 3.45999 5.99643 2.93628 7.27886 2.90427C8.56129 2.87225 9.80697 3.33438 10.7582 4.19505L10.9392 4.36705L13.0602 6.49005C13.2396 6.67001 13.3437 6.91149 13.3515 7.16544C13.3592 7.41939 13.27 7.66677 13.102 7.85733C12.9339 8.0479 12.6997 8.16736 12.4468 8.19145C12.1938 8.21555 11.9412 8.14247 11.7402 7.98705L11.6462 7.90405L9.52523 5.78305C8.9742 5.23561 8.23232 4.92323 7.45566 4.91163C6.67901 4.90003 5.92813 5.1901 5.36099 5.72084C4.79385 6.25158 4.45467 6.98159 4.4148 7.75731C4.37494 8.53303 4.63749 9.29397 5.14723 9.88005L5.28223 10.0241L8.11123 12.8531C8.67381 13.4155 9.43674 13.7314 10.2322 13.7314C11.0277 13.7314 11.7906 13.4155 12.3532 12.8531C12.4461 12.7601 12.5563 12.6864 12.6776 12.6361C12.799 12.5858 12.929 12.5599 13.0604 12.5599C13.1917 12.5598 13.3218 12.5856 13.4432 12.6359C13.5645 12.6861 13.6748 12.7597 13.7677 12.8526C13.8606 12.9454 13.9344 13.0556 13.9847 13.177C14.035 13.2983 14.0609 13.4284 14.0609 13.5597C14.061 13.691 14.0352 13.8211 13.9849 13.9425C13.9347 14.0639 13.8611 14.1741 13.7682 14.2671C12.8611 15.1741 11.64 15.6978 10.3576 15.7298C9.07517 15.7619 7.82949 15.2997 6.87823 14.4391L6.69623 14.2671L3.86823 11.4381C2.93087 10.5004 2.4043 9.22887 2.4043 7.90305C2.4043 6.57723 2.93087 5.30469 3.86823 4.36705Z" fill="black"/>
</svg>
