<svg width="41" height="40" viewBox="0 0 41 40" fill="none" xmlns="http://www.w3.org/2000/svg">
<path d="M31 36L23 38L16 37.5L8 34L3 29L1 21.5L2 14L5.5 8L12 2.5L17.5 1L23 1.5L29 4L34.5 8L37.5 14L39.5 18.5L39 24.5L36 32L31 36Z" fill="white"/>
<path fill-rule="evenodd" clip-rule="evenodd" d="M14.1648 0.694092C15.7478 0.198352 17.3876 -0.00626487 19.4329 0.000145779C23.8044 0.013848 26.3364 1.35029 29.8411 3.64428C34.5644 6.73588 37.9246 10.2287 39.7492 15.7027C40.8739 19.0768 40.0043 22.5655 39.2443 25.6147C39.1719 25.9051 39.1005 26.1915 39.0319 26.4734C37.7153 31.8863 33.8728 36.7196 28.3849 38.3659C25.1835 39.3263 21.396 39.5791 17.7623 39.1446C14.1337 38.7106 10.5735 37.5807 7.86516 35.6966C4.20034 33.1472 1.8506 29.1215 0.550013 24.7863C-0.300103 21.9525 -0.0807585 17.7501 0.636919 15.0099C1.35135 12.282 2.77731 9.06525 4.84929 6.91358C6.14602 5.56698 7.47263 4.1962 9.413 3.00357C11.1224 1.95291 12.59 1.18723 14.1648 0.694092ZM14.7726 2.63496C13.4308 3.05513 12.128 3.72206 10.478 4.73625C8.78222 5.77854 7.61423 6.97436 6.31428 8.32432C4.56983 10.1359 3.26867 12.9887 2.60437 15.5251C1.95116 18.0192 1.78501 21.825 2.49805 24.2018C3.71344 28.2532 5.85411 31.8201 9.0266 34.0271C11.3859 35.6683 14.6004 36.7181 18.0038 37.1252C21.4022 37.5316 24.9043 37.2867 27.8005 36.4179C32.4681 35.0176 35.8753 30.8454 37.0557 25.9927C37.1201 25.7282 37.1849 25.4655 37.2492 25.2046C38.0305 22.037 38.7477 19.1295 37.8198 16.3459C36.182 11.4324 33.1953 8.2705 28.7273 5.34597C25.3489 3.13464 23.2171 2.04583 19.4265 2.03394C17.5285 2.028 16.106 2.21739 14.7726 2.63496Z" fill="#282828"/>
<path fill-rule="evenodd" clip-rule="evenodd" d="M13.7362 31.8723C14.0303 31.9979 14.3687 31.961 14.6289 31.7751L30.6092 20.3576C30.8615 20.1773 31.0056 19.8816 30.9921 19.5717C30.9785 19.2618 30.8091 18.9798 30.542 18.8222L30.3234 18.6928C30.1824 18.6091 29.9785 18.4879 29.7278 18.338C29.2261 18.0382 28.5373 17.6241 27.7882 17.1667C26.2793 16.2453 24.5611 15.1693 23.6214 14.4939C22.2716 13.5237 21.0246 12.4873 19.7506 11.4283C18.9576 10.7692 18.154 10.1013 17.3087 9.43527C16.9997 9.19186 16.3149 8.70458 15.7324 8.29489C15.4358 8.08626 15.1573 7.89188 14.953 7.74972L14.7089 7.58013L14.6193 7.51804L14.6177 7.51695L14.0962 8.27082L13.1863 8.38232L13.196 8.46238L13.2238 8.69489C13.2477 8.897 13.2819 9.18955 13.3227 9.55035C13.4044 10.2722 13.5128 11.266 13.6193 12.3548C13.8342 14.5511 14.0355 17.0722 14.0087 18.5455C13.9762 20.3334 13.7391 21.8891 13.4984 23.4681C13.4383 23.8624 13.378 24.2582 13.3206 24.6594C13.0355 26.6513 12.8354 28.7148 13.1888 31.1603C13.2345 31.4769 13.442 31.7467 13.7362 31.8723ZM14.0962 8.27082L13.1863 8.38232C13.1424 8.02395 13.313 7.67317 13.6219 7.48637C13.9309 7.29958 14.3208 7.31157 14.6177 7.51695L14.0962 8.27082ZM15.2384 10.191C15.638 10.4754 15.9949 10.7342 16.1741 10.8753C16.9368 11.4763 17.7092 12.1175 18.4924 12.7676C19.813 13.8639 21.1643 14.9856 22.5514 15.9826C23.556 16.7046 25.3328 17.8154 26.8327 18.7314C27.4109 19.0844 27.9531 19.4117 28.4023 19.6812L14.8541 29.3611C14.7765 27.8043 14.9262 26.381 15.1354 24.9191C15.1884 24.5489 15.2457 24.1738 15.304 23.7923C15.5468 22.2025 15.8068 20.5008 15.8417 18.5788C15.8707 16.9829 15.6575 14.3584 15.4439 12.1763C15.3735 11.4564 15.3023 10.778 15.2384 10.191Z" fill="#282828"/>
</svg>
