<svg width="24" height="24" viewBox="0 0 24 24" fill="none" xmlns="http://www.w3.org/2000/svg">
<path d="M12.5001 15.546C12.5057 15.8221 12.2864 16.0504 12.0103 16.056C11.7342 16.0616 11.5059 15.8423 11.5003 15.5662L11.4986 15.4794C11.4976 15.4237 11.4962 15.3432 11.4947 15.2436C11.4916 15.0443 11.4879 14.7683 11.4854 14.4612C11.4805 13.8504 11.4803 13.1052 11.5006 12.599C11.5243 12.0069 11.5772 11.4096 11.629 10.8255C11.6381 10.7233 11.6471 10.6215 11.656 10.5202C11.7158 9.83366 11.7671 9.16456 11.7671 8.50583C11.7671 8.49859 11.7673 8.49136 11.7676 8.48414L11.8769 5.96561C11.8058 6.03457 11.733 6.10539 11.6597 6.17697C11.3789 6.45135 11.0927 6.73493 10.8641 6.96584C10.7497 7.08142 10.6509 7.18263 10.5748 7.26233C10.5368 7.30222 10.5055 7.33557 10.4814 7.36196C10.4694 7.37512 10.4599 7.38579 10.4526 7.39414L10.4441 7.40398L10.4418 7.40676L10.441 7.40765C10.2565 7.63827 9.82203 8.07952 9.45955 8.4398C9.27294 8.62528 9.09678 8.79774 8.96736 8.92375C8.90262 8.98679 8.84948 9.0383 8.81247 9.07409L8.76961 9.11551L8.75458 9.12999C8.55561 9.32146 8.23879 9.31566 8.04732 9.11669C7.85584 8.91771 7.86192 8.60119 8.06089 8.40971L8.07533 8.39579L8.11722 8.35533C8.15354 8.3202 8.20588 8.26946 8.26975 8.20728C8.39755 8.08284 8.57113 7.9129 8.7546 7.73054C9.13227 7.35517 9.51927 6.95907 9.66014 6.78298C9.73425 6.69035 9.93147 6.48656 10.1534 6.26233C10.3868 6.02654 10.6771 5.73892 10.9609 5.46166C11.2445 5.18464 11.5238 4.91586 11.7349 4.71823C11.8397 4.6201 11.9315 4.53601 11.9998 4.47653C12.0324 4.44815 12.0678 4.41825 12.0997 4.39422C12.1123 4.38472 12.1428 4.36201 12.1808 4.34125C12.1947 4.33367 12.247 4.30508 12.3188 4.28929C12.3544 4.28145 12.4353 4.26723 12.5351 4.28913C12.6535 4.3151 12.7858 4.39104 12.866 4.53538C12.8659 4.53509 12.866 4.53539 12.866 4.53538C12.866 4.53538 12.8685 4.53953 12.8753 4.54962C12.8829 4.5609 12.8935 4.57589 12.9077 4.59492C12.9362 4.63322 12.9744 4.68165 13.0224 4.74002C13.1184 4.85668 13.245 5.00255 13.3934 5.16882C13.6898 5.50084 14.0629 5.90232 14.4304 6.29177C14.7974 6.68069 15.1565 7.05525 15.424 7.33275C15.5577 7.47145 15.6685 7.58578 15.7457 7.66539L15.866 7.78911C16.0588 7.98682 16.0553 8.30385 15.8576 8.49664C15.6599 8.68944 15.3433 8.68545 15.1505 8.48775L15.028 8.36177C14.9502 8.2815 14.8387 8.16639 14.7041 8.02681C14.4351 7.74775 14.0733 7.37043 13.7031 6.97806C13.4197 6.67775 13.1301 6.36724 12.8727 6.08451L12.7671 8.51677C12.7666 9.21909 12.7119 9.92215 12.6522 10.6071C12.6431 10.7112 12.6339 10.8148 12.6248 10.9179C12.573 11.5028 12.5224 12.0732 12.4998 12.6389C12.4806 13.1185 12.4804 13.8419 12.4854 14.4532C12.4878 14.7572 12.4915 15.0306 12.4946 15.228C12.4961 15.3267 12.4975 15.4064 12.4985 15.4613L12.5001 15.546Z" fill="#282828"/>
<path d="M19.6853 15.561C19.6885 15.2849 19.4671 15.0585 19.191 15.0554C18.9149 15.0523 18.6885 15.2742 18.6854 15.5503L18.6852 15.5618L18.6847 15.5981C18.6843 15.6298 18.6836 15.6762 18.6825 15.7345C18.6804 15.851 18.6769 16.0145 18.6716 16.2022C18.6608 16.5796 18.6426 17.0472 18.6131 17.4266C18.5811 17.8368 18.6018 18.3503 18.6278 18.7446C18.6327 18.8196 18.6379 18.8913 18.6431 18.9583C18.5591 18.9676 18.4653 18.9779 18.3628 18.9889C17.8852 19.0405 17.2175 19.1089 16.4574 19.1765C14.9326 19.3123 13.0531 19.4432 11.5914 19.4308C10.2878 19.4197 8.61263 19.2887 7.25382 19.1589C6.57645 19.0943 5.98145 19.0303 5.55589 18.9825C5.46809 18.9726 5.38751 18.9634 5.31494 18.9551L5.31495 15.8204C5.31495 15.5442 5.09109 15.3203 4.81495 15.3203C4.53881 15.3203 4.31495 15.5442 4.31495 15.8203L4.31494 19.3995C4.31494 19.6519 4.50401 19.8649 4.75455 19.8958L4.80175 19.9016L4.93832 19.9179C5.05704 19.932 5.22932 19.9521 5.44424 19.9762C5.87398 20.0245 6.47466 20.0891 7.15876 20.1544C8.52289 20.2847 10.2338 20.4193 11.583 20.4307C13.0957 20.4436 15.0153 20.3088 16.546 20.1726C17.3137 20.1043 17.9878 20.0352 18.4701 19.9832C18.7112 19.9571 18.9046 19.9354 19.0378 19.9201L19.1911 19.9023L19.2311 19.8976L19.2451 19.8959C19.5174 19.8631 19.7125 19.6166 19.6823 19.344L19.6811 19.3328L19.6772 19.2958C19.6738 19.2633 19.6691 19.2155 19.6635 19.1557C19.6524 19.036 19.6381 18.8686 19.6256 18.6789C19.6002 18.2924 19.584 17.8388 19.61 17.5042C19.6415 17.0997 19.6603 16.6124 19.6711 16.2307C19.6766 16.0389 19.6802 15.8718 19.6823 15.7527C19.6834 15.6931 19.6842 15.6454 19.6846 15.6125L19.6852 15.5746L19.6853 15.561Z" fill="#282828"/>
</svg>
