<svg width="24" height="25" viewBox="0 0 24 25" fill="none" xmlns="http://www.w3.org/2000/svg">
<path d="M12 2.5C17.523 2.5 22 6.977 22 12.5C22 18.023 17.523 22.5 12 22.5C10.298 22.5025 8.62369 22.0687 7.13701 21.24L6.83201 21.062L3.80001 21.954C3.63501 22.0026 3.46033 22.0083 3.29252 21.9705C3.12472 21.9327 2.96935 21.8526 2.84115 21.738C2.71294 21.6233 2.61615 21.4778 2.55995 21.3152C2.50375 21.1526 2.49 20.9784 2.52001 20.809L2.54601 20.7L3.43801 17.668C2.49497 16.1093 1.99759 14.3218 2.00001 12.5C2.00001 6.977 6.47701 2.5 12 2.5ZM12 4.5C10.5676 4.49974 9.16147 4.88406 7.92834 5.61281C6.69521 6.34157 5.68036 7.38804 4.98977 8.64294C4.29918 9.89784 3.95817 11.3151 4.00237 12.7468C4.04656 14.1785 4.47433 15.5721 5.24101 16.782C5.43901 17.094 5.52401 17.478 5.45701 17.859L5.41801 18.022L4.97701 19.523L6.47801 19.082C6.91101 18.954 7.36101 19.032 7.71801 19.259C8.76634 19.9228 9.9547 20.3336 11.1892 20.459C12.4236 20.5844 13.6703 20.421 14.8307 19.9816C15.9911 19.5422 17.0334 18.8389 17.8752 17.9273C18.717 17.0157 19.3352 15.9208 19.6809 14.7291C20.0266 13.5374 20.0904 12.2817 19.8673 11.0611C19.6441 9.84053 19.14 8.6886 18.395 7.69638C17.65 6.70415 16.6843 5.89883 15.5744 5.34408C14.4645 4.78933 13.2408 4.50036 12 4.5ZM9.10201 7.684C9.21272 7.63606 9.33401 7.61776 9.45394 7.63091C9.57387 7.64406 9.68831 7.6882 9.78601 7.759C10.29 8.127 10.69 8.621 11.034 9.103L11.361 9.577L11.514 9.802C11.6023 9.93108 11.6456 10.0856 11.6373 10.2418C11.629 10.3979 11.5695 10.547 11.468 10.666L11.393 10.742L10.469 11.428C10.4245 11.4602 10.3932 11.5074 10.3809 11.5609C10.3686 11.6144 10.3761 11.6706 10.402 11.719C10.612 12.099 10.983 12.666 11.409 13.092C11.836 13.518 12.429 13.914 12.835 14.147C12.923 14.197 13.029 14.181 13.101 14.116L13.139 14.071L13.74 13.156C13.8503 13.009 14.0133 12.9105 14.1947 12.881C14.3761 12.8516 14.5618 12.8935 14.713 12.998L15.256 13.377C15.796 13.762 16.315 14.176 16.726 14.701C16.8024 14.7995 16.851 14.9167 16.8667 15.0403C16.8823 15.164 16.8645 15.2896 16.815 15.404C16.419 16.328 15.416 17.115 14.374 17.077L14.215 17.067L14.024 17.049C13.988 17.0447 13.952 17.0401 13.916 17.035L13.678 16.995C12.754 16.821 11.273 16.297 9.73801 14.763C8.20401 13.228 7.68001 11.747 7.50601 10.823L7.46601 10.585L7.44101 10.377L7.42801 10.202C7.42643 10.177 7.42509 10.152 7.42401 10.127C7.38601 9.083 8.17701 8.08 9.10201 7.684Z" fill="black"/>
</svg>
