<svg width="24" height="25" viewBox="0 0 24 25" fill="none" xmlns="http://www.w3.org/2000/svg">
<path fill-rule="evenodd" clip-rule="evenodd" d="M19.753 5.159C19.8395 5.06011 19.9056 4.94516 19.9477 4.82071C19.9897 4.69626 20.0069 4.56475 19.9981 4.43368C19.9893 4.30261 19.9548 4.17455 19.8965 4.05682C19.8383 3.93908 19.7574 3.83398 19.6585 3.7475C19.5596 3.66102 19.4447 3.59487 19.3202 3.55282C19.1958 3.51077 19.0642 3.49364 18.9332 3.50242C18.8021 3.51119 18.6741 3.5457 18.5563 3.60396C18.4386 3.66223 18.3335 3.74311 18.247 3.842L13.137 9.682L8.8 3.9C8.70685 3.7758 8.58607 3.675 8.44721 3.60557C8.30836 3.53614 8.15525 3.5 8 3.5H4C3.81429 3.5 3.63225 3.55171 3.47427 3.64935C3.31629 3.74698 3.18863 3.88668 3.10557 4.05279C3.02252 4.21889 2.98736 4.40484 3.00404 4.58981C3.02072 4.77477 3.08857 4.95143 3.2 5.1L9.637 13.682L4.247 19.842C4.16053 19.9409 4.09437 20.0558 4.05232 20.1803C4.01027 20.3047 3.99314 20.4363 4.00192 20.5673C4.01069 20.6984 4.0452 20.8264 4.10347 20.9442C4.16173 21.0619 4.24261 21.167 4.3415 21.2535C4.44039 21.34 4.55534 21.4061 4.67979 21.4482C4.80424 21.4902 4.93575 21.5074 5.06682 21.4986C5.19789 21.4898 5.32595 21.4553 5.44368 21.397C5.56142 21.3388 5.66652 21.2579 5.753 21.159L10.863 15.318L15.2 21.1C15.2931 21.2242 15.4139 21.325 15.5528 21.3944C15.6916 21.4639 15.8448 21.5 16 21.5H20C20.1857 21.5 20.3678 21.4483 20.5257 21.3507C20.6837 21.253 20.8114 21.1133 20.8944 20.9472C20.9775 20.7811 21.0126 20.5952 20.996 20.4102C20.9793 20.2252 20.9114 20.0486 20.8 19.9L14.363 11.318L19.753 5.159ZM16.5 19.5L6 5.5H7.5L18 19.5H16.5Z" fill="black"/>
</svg>
