<svg width="25" height="59" viewBox="0 0 25 59" fill="none" xmlns="http://www.w3.org/2000/svg">
<path d="M22.5859 28.3962C22.4549 24.3353 22.3578 21.004 22.3578 20.737C22.3852 21.0493 22.3578 23.8711 22.3578 24.3935C22.3578 24.9158 22.1685 29.0576 22.0256 29.4245C21.4649 30.8642 23.0256 32.6123 23.0256 33.0236C23.0256 34.686 20.9603 36.3069 20.96 37.9747C20.96 37.9747 21.8328 37.9747 22.3374 37.9747C22.3374 37.4953 23.4666 35.475 23.7071 33.0236M22.5859 28.3962C22.6248 29.6028 23.8149 31.9247 23.7071 33.0236M22.5859 28.3962L23.7071 33.0236" stroke="black" stroke-width="1.5" stroke-miterlimit="10" stroke-linecap="round" stroke-linejoin="round"/>
<path d="M0.996094 1C13.3877 1 22.3372 7.03072 22.3372 20.7369" stroke="black" stroke-width="1.5" stroke-linecap="round" stroke-linejoin="round"/>
<path d="M7.21999 57.8738C19.3581 56.0064 20.9599 47.6064 20.9599 37.9747L22.3367 37.9747C22.3369 45.3285 21.2358 55.751 7.21999 57.8738ZM7.21999 57.8738C5.5755 58.1268 3.7376 58.2599 1.68408 58.2599C3.72316 58.2599 5.56194 58.1249 7.21999 57.8738Z" stroke="black" stroke-width="1.5" stroke-linecap="round" stroke-linejoin="round"/>
</svg>
