<svg width="64" height="8" viewBox="0 0 64 8" fill="none" xmlns="http://www.w3.org/2000/svg">
<path d="M54.0341 8H56.5209V5.12584H57.3536L60.4195 7.99943H64L59.7104 4.04357L63.6991 0H60.1832L57.3783 2.81323H56.4328V0.000547427H54.0346V8H54.0341ZM7.31164 0.000547427L11.1098 7.99943H8.46738L7.8085 6.64284H3.42881L2.75664 7.99943H0L3.90352 0.000547427H7.31164ZM6.77242 4.61796L5.59798 2.28579L5.58961 2.26682L4.42354 4.618L6.77242 4.61796ZM11.4707 7.99834H13.9659V5.12584H14.7976L17.8645 7.99943H21.445L17.1455 4.04357L21.1421 0.000547427H17.6271L14.8217 2.81323H13.8679V0.000547427H11.4702V7.99834H11.4707ZM26.2151 0.000547427C27.1611 0.000547427 28.1071 0.000547427 29.053 0.000547427C29.4775 0.000547427 30.2762 0.437463 30.5456 1.37726C30.7657 2.16789 30.6106 3.46919 30.0153 3.94467C30.4476 4.14909 30.7411 4.92137 30.782 5.72091V6.03716C30.7734 6.17675 30.7579 6.3154 30.7328 6.44559C30.5772 7.32951 29.9661 7.99889 29.4771 7.99889C28.3839 7.99889 27.299 7.99889 26.2147 7.99889C24.7788 7.99889 23.3438 7.99889 21.9163 7.99889C21.9094 5.33707 21.9094 2.66853 21.901 0C23.3369 0.000547263 24.7802 0.000547427 26.2152 0.000547427H26.2151ZM26.2151 5.77566H27.9845C28.1967 5.77566 28.3755 5.58011 28.3755 5.34823C28.3755 5.11691 28.1962 4.92918 27.9845 4.92918H24.1602V5.77566H26.2151ZM26.2151 2.90208H27.887C28.1002 2.90208 28.2711 2.70589 28.2711 2.47353C28.2711 2.24109 28.1002 2.04608 27.887 2.04608H24.1607V2.90151H26.2151V2.90208ZM42.5915 0.000547427V7.99943H45.1108V2.62717L48.6972 7.99834H52.582V0.000547427H50.0947V5.58904L46.4413 0.000547427H42.5915ZM38.3576 0.000547427L42.1552 7.99943H39.5212L38.8662 6.6702H34.486L33.8242 7.99943H31.0686L34.9716 0.000547427H38.3576ZM37.8533 4.61796L36.6705 2.28579L36.6619 2.26682L35.4958 4.61797L37.8533 4.61796Z" fill="#DF392E"/>
</svg>
