<svg width="95" height="31" viewBox="0 0 95 31" fill="none" xmlns="http://www.w3.org/2000/svg">
<path d="M24.6836 0.588655C24.6836 0.26355 24.9471 0 25.2722 0H30.9499V7.23036H25.2722C24.9471 7.23036 24.6836 6.96681 24.6836 6.64171V0.588655Z" fill="#E62C33" fill-opacity="0.5"/>
<path d="M30.9502 0H36.6279C36.953 0 37.2165 0.26355 37.2165 0.588655V10.4979C37.2165 10.823 36.953 11.0866 36.6279 11.0866H31.5389C31.2137 11.0866 30.9502 10.823 30.9502 10.4979V0Z" fill="#E62C33"/>
<path d="M44.8363 8.11995C44.8363 9.04846 44.5711 9.76779 44.0405 10.278C43.5201 10.7881 42.8314 11.0432 41.9743 11.0432H39.4184C39.3163 11.0432 39.2653 10.9922 39.2653 10.8902V0.48275C39.2653 0.380717 39.3163 0.3297 39.4184 0.3297H41.76C42.6885 0.3297 43.413 0.57458 43.9333 1.06434C44.4639 1.5439 44.7292 2.24793 44.7292 3.17643C44.7292 4.27839 44.3364 5.03854 43.5507 5.45688C43.4997 5.48749 43.4946 5.513 43.5354 5.53341C43.9436 5.77829 44.2599 6.1201 44.4843 6.55884C44.719 6.99759 44.8363 7.51796 44.8363 8.11995ZM40.7958 1.60002C40.755 1.60002 40.7346 1.62042 40.7346 1.66124V4.9059C40.7346 4.94671 40.755 4.96712 40.7958 4.96712H41.7753C42.2549 4.96712 42.6273 4.82427 42.8926 4.53858C43.1579 4.24268 43.2905 3.83455 43.2905 3.31418C43.2905 2.7734 43.1579 2.35506 42.8926 2.05917C42.6273 1.75307 42.2549 1.60002 41.7753 1.60002H40.7958ZM41.8519 9.75759C42.3212 9.75759 42.6885 9.59944 42.9538 9.28314C43.2293 8.96683 43.3671 8.51788 43.3671 7.93629C43.3671 7.3445 43.2344 6.88535 42.9691 6.55884C42.7038 6.22213 42.3365 6.05378 41.8672 6.05378H40.7958C40.755 6.05378 40.7346 6.07418 40.7346 6.115V9.69637C40.7346 9.73718 40.755 9.75759 40.7958 9.75759H41.8519ZM48.8624 3.40601C48.8624 3.30398 48.9134 3.25296 49.0155 3.25296H50.1786C50.2807 3.25296 50.3317 3.30398 50.3317 3.40601V10.8902C50.3317 10.9922 50.2807 11.0432 50.1786 11.0432H49.0155C48.9134 11.0432 48.8624 10.9922 48.8624 10.8902V10.4463C48.8624 10.4157 48.8522 10.4004 48.8318 10.4004C48.8216 10.4004 48.8063 10.4106 48.7859 10.431C48.4798 10.9106 47.99 11.1503 47.3166 11.1503C46.7044 11.1503 46.2095 10.9667 45.832 10.5994C45.4545 10.2218 45.2657 9.65046 45.2657 8.88521V3.40601C45.2657 3.30398 45.3167 3.25296 45.4188 3.25296H46.582C46.684 3.25296 46.735 3.30398 46.735 3.40601V8.5638C46.735 9.44129 47.0819 9.88003 47.7757 9.88003C48.1227 9.88003 48.3879 9.75759 48.5716 9.51271C48.7655 9.25763 48.8624 8.91071 48.8624 8.47197V3.40601ZM54.2749 3.14582C54.9177 3.14582 55.4074 3.3652 55.7442 3.80394C56.0911 4.23248 56.2645 4.84468 56.2645 5.64054V10.8902C56.2645 10.9922 56.2135 11.0432 56.1115 11.0432H54.9483C54.8463 11.0432 54.7952 10.9922 54.7952 10.8902V5.76298C54.7952 5.33444 54.7034 5.00283 54.5198 4.76816C54.3361 4.53348 54.081 4.41614 53.7545 4.41614C53.4178 4.41614 53.1525 4.53348 52.9586 4.76816C52.775 4.99263 52.673 5.31403 52.6525 5.73237C52.6525 5.79359 52.6474 5.8242 52.6372 5.8242V10.8902C52.6372 10.9922 52.5862 11.0432 52.4842 11.0432H51.321C51.219 11.0432 51.168 10.9922 51.168 10.8902V3.40601C51.168 3.30398 51.219 3.25296 51.321 3.25296H52.4842C52.5862 3.25296 52.6372 3.30398 52.6372 3.40601V3.81924C52.6372 3.83965 52.6474 3.85496 52.6678 3.86516C52.6883 3.86516 52.7087 3.84985 52.7291 3.81924C53.0964 3.3703 53.6117 3.14582 54.2749 3.14582ZM60.5291 0.48275C60.5291 0.380717 60.5801 0.3297 60.6822 0.3297H61.8454C61.9474 0.3297 61.9984 0.380717 61.9984 0.48275V10.8902C61.9984 10.9922 61.9474 11.0432 61.8454 11.0432H60.6822C60.5801 11.0432 60.5291 10.9922 60.5291 10.8902V10.6453C60.5291 10.6249 60.5189 10.6096 60.4985 10.5994C60.4883 10.5892 60.473 10.5943 60.4526 10.6147C60.2587 10.7983 60.0394 10.9361 59.7945 11.0279C59.5496 11.1197 59.3047 11.1657 59.0598 11.1657C58.3864 11.1657 57.8508 10.9463 57.4528 10.5075C57.0651 10.0586 56.8712 9.4719 56.8712 8.74746V5.56402C56.8712 4.80897 57.0651 4.21717 57.4528 3.78863C57.8508 3.34989 58.3864 3.13052 59.0598 3.13052C59.3047 3.13052 59.5496 3.17643 59.7945 3.26826C60.0394 3.36009 60.2587 3.49784 60.4526 3.6815C60.473 3.70191 60.4883 3.70701 60.4985 3.6968C60.5189 3.6866 60.5291 3.6713 60.5291 3.65089V0.48275ZM59.4425 9.89534C59.7282 9.89534 59.9679 9.80351 60.1618 9.61985C60.3659 9.42598 60.4883 9.176 60.5291 8.8699V5.42627C60.4883 5.12017 60.3659 4.87529 60.1618 4.69163C59.9679 4.49777 59.7282 4.40084 59.4425 4.40084C59.116 4.40084 58.8456 4.51817 58.6313 4.75285C58.4272 4.98753 58.3252 5.28853 58.3252 5.65585V8.64033C58.3252 9.00765 58.4272 9.30864 58.6313 9.54332C58.8456 9.778 59.116 9.89534 59.4425 9.89534ZM62.9269 11.0432C62.8248 11.0432 62.7738 10.9922 62.7738 10.8902V0.48275C62.7738 0.380717 62.8248 0.3297 62.9269 0.3297H64.0901C64.1921 0.3297 64.2431 0.380717 64.2431 0.48275V10.8902C64.2431 10.9922 64.1921 11.0432 64.0901 11.0432H62.9269ZM70.004 7.59958C70.004 7.70162 69.953 7.75263 69.851 7.75263H66.392C66.3512 7.75263 66.3308 7.77304 66.3308 7.81385V8.64033C66.3308 9.00765 66.4328 9.30864 66.6369 9.54332C66.841 9.778 67.1063 9.89534 67.4328 9.89534C67.7185 9.89534 67.9582 9.80861 68.1521 9.63515C68.346 9.46169 68.4684 9.23722 68.5194 8.96173C68.55 8.8801 68.6062 8.83929 68.6878 8.83929L69.8204 8.90051C69.8714 8.90051 69.9071 8.91582 69.9275 8.94643C69.9581 8.97704 69.9683 9.01275 69.9581 9.05356C69.8867 9.71678 69.6316 10.2371 69.1928 10.6147C68.7643 10.982 68.1776 11.1657 67.4328 11.1657C66.6471 11.1657 66.0196 10.9463 65.5503 10.5075C65.0911 10.0688 64.8615 9.4821 64.8615 8.74746V5.56402C64.8615 4.83958 65.0911 4.25289 65.5503 3.80394C66.0196 3.35499 66.6471 3.13052 67.4328 3.13052C68.2286 3.13052 68.8561 3.35499 69.3153 3.80394C69.7744 4.25289 70.004 4.83958 70.004 5.56402V7.59958ZM67.4328 4.40084C67.1063 4.40084 66.841 4.51817 66.6369 4.75285C66.4328 4.98753 66.3308 5.28853 66.3308 5.65585V6.46701C66.3308 6.50783 66.3512 6.52823 66.392 6.52823H68.4888C68.5296 6.52823 68.55 6.50783 68.55 6.46701V5.65585C68.55 5.28853 68.448 4.98753 68.2439 4.75285C68.0399 4.51817 67.7695 4.40084 67.4328 4.40084Z" fill="black"/>
<path d="M3.71 23.6867C3.71 23.7533 3.67667 23.7867 3.61 23.7867H2.53C2.50333 23.7867 2.49 23.8 2.49 23.8267V26.4767C2.49 26.7567 2.55333 26.96 2.68 27.0867C2.80667 27.2067 3.00333 27.2667 3.27 27.2667H3.56C3.62667 27.2667 3.66 27.3 3.66 27.3667V27.9867C3.66 28.0533 3.62667 28.0867 3.56 28.0867C3.34667 28.1 3.19333 28.1067 3.1 28.1067C2.59333 28.1067 2.21 28.0167 1.95 27.8367C1.69667 27.65 1.57 27.31 1.57 26.8167V23.8267C1.57 23.8 1.55667 23.7867 1.53 23.7867H0.92C0.853333 23.7867 0.82 23.7533 0.82 23.6867V23.0967C0.82 23.03 0.853333 22.9967 0.92 22.9967H1.53C1.55667 22.9967 1.57 22.9833 1.57 22.9567V21.7767C1.57 21.71 1.60333 21.6767 1.67 21.6767H2.39C2.45667 21.6767 2.49 21.71 2.49 21.7767V22.9567C2.49 22.9833 2.50333 22.9967 2.53 22.9967H3.61C3.67667 22.9967 3.71 23.03 3.71 23.0967V23.6867ZM6.75141 22.9167C7.15807 22.9167 7.51141 22.99 7.81141 23.1367C8.11807 23.2767 8.35141 23.4767 8.51141 23.7367C8.67807 23.99 8.76141 24.28 8.76141 24.6067V27.9867C8.76141 28.0533 8.72807 28.0867 8.66141 28.0867H7.90141C7.83474 28.0867 7.80141 28.0533 7.80141 27.9867V27.6267C7.80141 27.5933 7.78474 27.5867 7.75141 27.6067C7.57807 27.7867 7.36474 27.9267 7.11141 28.0267C6.86474 28.12 6.58807 28.1667 6.28141 28.1667C5.78807 28.1667 5.37807 28.0433 5.05141 27.7967C4.73141 27.5433 4.57141 27.1633 4.57141 26.6567C4.57141 26.1367 4.75141 25.73 5.11141 25.4367C5.47807 25.1367 5.98807 24.9867 6.64141 24.9867H7.76141C7.78807 24.9867 7.80141 24.9733 7.80141 24.9467V24.6767C7.80141 24.3833 7.71474 24.1567 7.54141 23.9967C7.37474 23.83 7.11807 23.7467 6.77141 23.7467C6.49141 23.7467 6.26141 23.8033 6.08141 23.9167C5.90807 24.0233 5.80141 24.17 5.76141 24.3567C5.74141 24.4233 5.70141 24.4533 5.64141 24.4467L4.83141 24.3367C4.76474 24.3233 4.73474 24.2967 4.74141 24.2567C4.79474 23.8633 5.00474 23.5433 5.37141 23.2967C5.73807 23.0433 6.19807 22.9167 6.75141 22.9167ZM6.49141 27.3567C6.84474 27.3567 7.15141 27.2633 7.41141 27.0767C7.67141 26.89 7.80141 26.6533 7.80141 26.3667V25.7767C7.80141 25.75 7.78807 25.7367 7.76141 25.7367H6.82141C6.42807 25.7367 6.11474 25.8133 5.88141 25.9667C5.64807 26.12 5.53141 26.3333 5.53141 26.6067C5.53141 26.8533 5.61807 27.04 5.79141 27.1667C5.97141 27.2933 6.20474 27.3567 6.49141 27.3567ZM12.2874 22.9467C12.5008 22.9467 12.6941 22.99 12.8674 23.0767C12.9141 23.0967 12.9308 23.1367 12.9174 23.1967L12.7574 23.9467C12.7508 24.0067 12.7108 24.0267 12.6374 24.0067C12.5241 23.96 12.3908 23.9367 12.2374 23.9367L12.0974 23.9467C11.7841 23.96 11.5241 24.07 11.3174 24.2767C11.1174 24.4767 11.0174 24.74 11.0174 25.0667V27.9867C11.0174 28.0533 10.9841 28.0867 10.9174 28.0867H10.1574C10.0908 28.0867 10.0574 28.0533 10.0574 27.9867V23.0967C10.0574 23.03 10.0908 22.9967 10.1574 22.9967H10.9174C10.9841 22.9967 11.0174 23.03 11.0174 23.0967V23.6267C11.0174 23.6467 11.0208 23.66 11.0274 23.6667C11.0408 23.6667 11.0508 23.66 11.0574 23.6467C11.3574 23.18 11.7674 22.9467 12.2874 22.9467ZM15.5893 22.9167C15.996 22.9167 16.3493 22.99 16.6493 23.1367C16.956 23.2767 17.1893 23.4767 17.3493 23.7367C17.516 23.99 17.5993 24.28 17.5993 24.6067V27.9867C17.5993 28.0533 17.566 28.0867 17.4993 28.0867H16.7393C16.6726 28.0867 16.6393 28.0533 16.6393 27.9867V27.6267C16.6393 27.5933 16.6226 27.5867 16.5893 27.6067C16.416 27.7867 16.2026 27.9267 15.9493 28.0267C15.7026 28.12 15.426 28.1667 15.1193 28.1667C14.626 28.1667 14.216 28.0433 13.8893 27.7967C13.5693 27.5433 13.4093 27.1633 13.4093 26.6567C13.4093 26.1367 13.5893 25.73 13.9493 25.4367C14.316 25.1367 14.826 24.9867 15.4793 24.9867H16.5993C16.626 24.9867 16.6393 24.9733 16.6393 24.9467V24.6767C16.6393 24.3833 16.5526 24.1567 16.3793 23.9967C16.2126 23.83 15.956 23.7467 15.6093 23.7467C15.3293 23.7467 15.0993 23.8033 14.9193 23.9167C14.746 24.0233 14.6393 24.17 14.5993 24.3567C14.5793 24.4233 14.5393 24.4533 14.4793 24.4467L13.6693 24.3367C13.6026 24.3233 13.5726 24.2967 13.5793 24.2567C13.6326 23.8633 13.8426 23.5433 14.2093 23.2967C14.576 23.0433 15.036 22.9167 15.5893 22.9167ZM15.3293 27.3567C15.6826 27.3567 15.9893 27.2633 16.2493 27.0767C16.5093 26.89 16.6393 26.6533 16.6393 26.3667V25.7767C16.6393 25.75 16.626 25.7367 16.5993 25.7367H15.6593C15.266 25.7367 14.9526 25.8133 14.7193 25.9667C14.486 26.12 14.3693 26.3333 14.3693 26.6067C14.3693 26.8533 14.456 27.04 14.6293 27.1667C14.8093 27.2933 15.0426 27.3567 15.3293 27.3567ZM21.067 21.9267C20.7336 21.9267 20.507 21.99 20.387 22.1167C20.267 22.2433 20.207 22.4833 20.207 22.8367V22.9567C20.207 22.9833 20.2203 22.9967 20.247 22.9967H21.297C21.3636 22.9967 21.397 23.03 21.397 23.0967V23.7767C21.397 23.8433 21.3636 23.8767 21.297 23.8767H20.247C20.2203 23.8767 20.207 23.89 20.207 23.9167V27.9867C20.207 28.0533 20.1736 28.0867 20.107 28.0867H19.347C19.2803 28.0867 19.247 28.0533 19.247 27.9867V23.9167C19.247 23.89 19.2336 23.8767 19.207 23.8767H18.537C18.4703 23.8767 18.437 23.8433 18.437 23.7767V23.0967C18.437 23.03 18.4703 22.9967 18.537 22.9967H19.207C19.2336 22.9967 19.247 22.9833 19.247 22.9567V22.7767C19.247 22.3367 19.297 21.9967 19.397 21.7567C19.5036 21.5167 19.6803 21.3467 19.927 21.2467C20.1736 21.14 20.5203 21.0867 20.967 21.0867H21.307C21.3736 21.0867 21.407 21.12 21.407 21.1867V21.8267C21.407 21.8933 21.3736 21.9267 21.307 21.9267H21.067ZM22.5188 28.0867C22.4522 28.0867 22.4188 28.0533 22.4188 27.9867V23.0967C22.4188 23.03 22.4522 22.9967 22.5188 22.9967H23.2788C23.3455 22.9967 23.3788 23.03 23.3788 23.0967V27.9867C23.3788 28.0533 23.3455 28.0867 23.2788 28.0867H22.5188ZM26.9759 22.9267C27.5225 22.9267 27.9559 23.0867 28.2759 23.4067C28.5959 23.72 28.7559 24.1467 28.7559 24.6867V27.9867C28.7559 28.0533 28.7225 28.0867 28.6559 28.0867H27.8959C27.8292 28.0867 27.7959 28.0533 27.7959 27.9867V24.8767C27.7959 24.5433 27.6992 24.2733 27.5059 24.0667C27.3125 23.86 27.0559 23.7567 26.7359 23.7567C26.4225 23.7567 26.1659 23.86 25.9659 24.0667C25.7659 24.2733 25.6659 24.54 25.6659 24.8667V27.9867C25.6659 28.0533 25.6325 28.0867 25.5659 28.0867H24.8059C24.7392 28.0867 24.7059 28.0533 24.7059 27.9867V23.0967C24.7059 23.03 24.7392 22.9967 24.8059 22.9967H25.5659C25.6325 22.9967 25.6659 23.03 25.6659 23.0967V23.4567C25.6659 23.47 25.6692 23.48 25.6759 23.4867C25.6892 23.4933 25.6992 23.49 25.7059 23.4767C25.9925 23.11 26.4159 22.9267 26.9759 22.9267ZM33.2272 21.1867C33.2272 21.12 33.2605 21.0867 33.3272 21.0867H34.0872C34.1539 21.0867 34.1872 21.12 34.1872 21.1867V27.9867C34.1872 28.0533 34.1539 28.0867 34.0872 28.0867H33.3272C33.2605 28.0867 33.2272 28.0533 33.2272 27.9867V27.6567C33.2272 27.6433 33.2205 27.6333 33.2072 27.6267C33.2005 27.62 33.1905 27.6233 33.1772 27.6367C33.0305 27.8033 32.8572 27.9333 32.6572 28.0267C32.4572 28.12 32.2405 28.1667 32.0072 28.1667C31.5272 28.1667 31.1272 28.05 30.8072 27.8167C30.4939 27.5767 30.2639 27.24 30.1172 26.8067C29.9905 26.4533 29.9272 26.0267 29.9272 25.5267C29.9272 25.06 29.9805 24.6567 30.0872 24.3167C30.2272 23.8767 30.4572 23.5333 30.7772 23.2867C31.0972 23.04 31.5072 22.9167 32.0072 22.9167C32.2339 22.9167 32.4472 22.9633 32.6472 23.0567C32.8539 23.1433 33.0305 23.27 33.1772 23.4367C33.1905 23.45 33.2005 23.4533 33.2072 23.4467C33.2205 23.44 33.2272 23.43 33.2272 23.4167V21.1867ZM32.9772 26.7967C33.1305 26.5167 33.2072 26.0967 33.2072 25.5367C33.2072 24.9767 33.1239 24.55 32.9572 24.2567C32.7639 23.9167 32.4805 23.7467 32.1072 23.7467C31.7072 23.7467 31.4105 23.9067 31.2172 24.2267C31.0039 24.56 30.8972 25 30.8972 25.5467C30.8972 26.06 30.9805 26.4733 31.1472 26.7867C31.3405 27.1533 31.6572 27.3367 32.0972 27.3367C32.4839 27.3367 32.7772 27.1567 32.9772 26.7967ZM37.4545 22.9167C37.8612 22.9167 38.2145 22.99 38.5145 23.1367C38.8212 23.2767 39.0545 23.4767 39.2145 23.7367C39.3812 23.99 39.4645 24.28 39.4645 24.6067V27.9867C39.4645 28.0533 39.4312 28.0867 39.3645 28.0867H38.6045C38.5379 28.0867 38.5045 28.0533 38.5045 27.9867V27.6267C38.5045 27.5933 38.4879 27.5867 38.4545 27.6067C38.2812 27.7867 38.0679 27.9267 37.8145 28.0267C37.5679 28.12 37.2912 28.1667 36.9845 28.1667C36.4912 28.1667 36.0812 28.0433 35.7545 27.7967C35.4345 27.5433 35.2745 27.1633 35.2745 26.6567C35.2745 26.1367 35.4545 25.73 35.8145 25.4367C36.1812 25.1367 36.6912 24.9867 37.3445 24.9867H38.4645C38.4912 24.9867 38.5045 24.9733 38.5045 24.9467V24.6767C38.5045 24.3833 38.4179 24.1567 38.2445 23.9967C38.0779 23.83 37.8212 23.7467 37.4745 23.7467C37.1945 23.7467 36.9645 23.8033 36.7845 23.9167C36.6112 24.0233 36.5045 24.17 36.4645 24.3567C36.4445 24.4233 36.4045 24.4533 36.3445 24.4467L35.5345 24.3367C35.4679 24.3233 35.4379 24.2967 35.4445 24.2567C35.4979 23.8633 35.7079 23.5433 36.0745 23.2967C36.4412 23.0433 36.9012 22.9167 37.4545 22.9167ZM37.1945 27.3567C37.5479 27.3567 37.8545 27.2633 38.1145 27.0767C38.3745 26.89 38.5045 26.6533 38.5045 26.3667V25.7767C38.5045 25.75 38.4912 25.7367 38.4645 25.7367H37.5245C37.1312 25.7367 36.8179 25.8133 36.5845 25.9667C36.3512 26.12 36.2345 26.3333 36.2345 26.6067C36.2345 26.8533 36.3212 27.04 36.4945 27.1667C36.6745 27.2933 36.9079 27.3567 37.1945 27.3567ZM43.0305 22.9267C43.5772 22.9267 44.0105 23.0867 44.3305 23.4067C44.6505 23.72 44.8105 24.1467 44.8105 24.6867V27.9867C44.8105 28.0533 44.7772 28.0867 44.7105 28.0867H43.9505C43.8839 28.0867 43.8505 28.0533 43.8505 27.9867V24.8767C43.8505 24.5433 43.7539 24.2733 43.5605 24.0667C43.3672 23.86 43.1105 23.7567 42.7905 23.7567C42.4772 23.7567 42.2205 23.86 42.0205 24.0667C41.8205 24.2733 41.7205 24.54 41.7205 24.8667V27.9867C41.7205 28.0533 41.6872 28.0867 41.6205 28.0867H40.8605C40.7939 28.0867 40.7605 28.0533 40.7605 27.9867V23.0967C40.7605 23.03 40.7939 22.9967 40.8605 22.9967H41.6205C41.6872 22.9967 41.7205 23.03 41.7205 23.0967V23.4567C41.7205 23.47 41.7239 23.48 41.7305 23.4867C41.7439 23.4933 41.7539 23.49 41.7605 23.4767C42.0472 23.11 42.4705 22.9267 43.0305 22.9267ZM51.3124 23.0967C51.3124 23.03 51.3458 22.9967 51.4124 22.9967H52.1724C52.2391 22.9967 52.2724 23.03 52.2724 23.0967V27.8267C52.2724 28.6333 52.0424 29.21 51.5824 29.5567C51.1291 29.9033 50.5191 30.0767 49.7524 30.0767C49.6458 30.0767 49.4791 30.07 49.2524 30.0567C49.1858 30.05 49.1524 30.0133 49.1524 29.9467L49.1824 29.2567C49.1824 29.23 49.1924 29.2067 49.2124 29.1867C49.2324 29.1667 49.2591 29.16 49.2924 29.1667C49.3858 29.1733 49.5224 29.1767 49.7024 29.1767C50.2691 29.1767 50.6791 29.07 50.9324 28.8567C51.1858 28.65 51.3124 28.2967 51.3124 27.7967V27.6167C51.3124 27.6033 51.3058 27.5933 51.2924 27.5867C51.2858 27.58 51.2758 27.5833 51.2624 27.5967C50.9824 27.9233 50.5724 28.0867 50.0324 28.0867C49.5991 28.0867 49.2058 27.9733 48.8524 27.7467C48.5058 27.52 48.2658 27.1867 48.1324 26.7467C48.0458 26.4533 48.0024 26.0467 48.0024 25.5267C48.0024 24.9733 48.0524 24.5467 48.1524 24.2467C48.2791 23.8467 48.5024 23.5267 48.8224 23.2867C49.1491 23.04 49.5324 22.9167 49.9724 22.9167C50.5191 22.9167 50.9491 23.0833 51.2624 23.4167C51.2758 23.43 51.2858 23.4367 51.2924 23.4367C51.3058 23.43 51.3124 23.42 51.3124 23.4067V23.0967ZM51.2524 26.4567C51.2724 26.35 51.2858 26.2367 51.2924 26.1167C51.3058 25.9967 51.3124 25.7967 51.3124 25.5167C51.3124 25.2367 51.3058 25.04 51.2924 24.9267C51.2858 24.8067 51.2691 24.6933 51.2424 24.5867C51.1891 24.34 51.0691 24.14 50.8824 23.9867C50.6958 23.8267 50.4624 23.7467 50.1824 23.7467C49.9024 23.7467 49.6691 23.8267 49.4824 23.9867C49.2958 24.14 49.1624 24.34 49.0824 24.5867C49.0091 24.7867 48.9724 25.0967 48.9724 25.5167C48.9724 25.9767 49.0058 26.29 49.0724 26.4567C49.1391 26.7033 49.2691 26.9067 49.4624 27.0667C49.6624 27.22 49.9024 27.2967 50.1824 27.2967C50.4758 27.2967 50.7124 27.22 50.8924 27.0667C51.0791 26.9067 51.1991 26.7033 51.2524 26.4567ZM55.6921 28.1667C55.1988 28.1667 54.7688 28.0433 54.4021 27.7967C54.0354 27.5433 53.7788 27.1933 53.6321 26.7467C53.5121 26.3867 53.4521 25.98 53.4521 25.5267C53.4521 25.0533 53.5088 24.6533 53.6221 24.3267C53.7688 23.8867 54.0254 23.5433 54.3921 23.2967C54.7588 23.0433 55.1954 22.9167 55.7021 22.9167C56.1821 22.9167 56.5988 23.0433 56.9521 23.2967C57.3121 23.5433 57.5688 23.8833 57.7221 24.3167C57.8421 24.6567 57.9021 25.0567 57.9021 25.5167C57.9021 25.9833 57.8421 26.3933 57.7221 26.7467C57.5754 27.1933 57.3221 27.5433 56.9621 27.7967C56.6021 28.0433 56.1788 28.1667 55.6921 28.1667ZM55.6921 27.3367C55.9588 27.3367 56.1921 27.2633 56.3921 27.1167C56.5921 26.9633 56.7354 26.75 56.8221 26.4767C56.8954 26.2233 56.9321 25.91 56.9321 25.5367C56.9321 25.1633 56.8988 24.8533 56.8321 24.6067C56.7454 24.3333 56.6021 24.1233 56.4021 23.9767C56.2021 23.8233 55.9588 23.7467 55.6721 23.7467C55.3988 23.7467 55.1621 23.8233 54.9621 23.9767C54.7621 24.1233 54.6188 24.3333 54.5321 24.6067C54.4588 24.84 54.4221 25.15 54.4221 25.5367C54.4221 25.9233 54.4588 26.2367 54.5321 26.4767C54.6121 26.75 54.7521 26.9633 54.9521 27.1167C55.1588 27.2633 55.4054 27.3367 55.6921 27.3367ZM56.5221 22.1567C56.3354 22.1567 56.1821 22.0967 56.0621 21.9767C55.9421 21.8567 55.8821 21.7033 55.8821 21.5167C55.8821 21.33 55.9421 21.1767 56.0621 21.0567C56.1821 20.9367 56.3354 20.8767 56.5221 20.8767C56.7088 20.8767 56.8621 20.9367 56.9821 21.0567C57.1021 21.1767 57.1621 21.33 57.1621 21.5167C57.1621 21.7033 57.1021 21.8567 56.9821 21.9767C56.8621 22.0967 56.7088 22.1567 56.5221 22.1567ZM54.7021 22.1567C54.5154 22.1567 54.3621 22.0967 54.2421 21.9767C54.1221 21.8567 54.0621 21.7033 54.0621 21.5167C54.0621 21.33 54.1221 21.1767 54.2421 21.0567C54.3621 20.9367 54.5154 20.8767 54.7021 20.8767C54.8888 20.8767 55.0421 20.9367 55.1621 21.0567C55.2821 21.1767 55.3421 21.33 55.3421 21.5167C55.3421 21.7033 55.2821 21.8567 55.1621 21.9767C55.0421 22.0967 54.8888 22.1567 54.7021 22.1567ZM61.2923 22.9267C61.8389 22.9267 62.2723 23.0867 62.5923 23.4067C62.9123 23.72 63.0723 24.1467 63.0723 24.6867V27.9867C63.0723 28.0533 63.0389 28.0867 62.9723 28.0867H62.2123C62.1456 28.0867 62.1123 28.0533 62.1123 27.9867V24.8767C62.1123 24.5433 62.0156 24.2733 61.8223 24.0667C61.6289 23.86 61.3723 23.7567 61.0523 23.7567C60.7389 23.7567 60.4823 23.86 60.2823 24.0667C60.0823 24.2733 59.9823 24.54 59.9823 24.8667V27.9867C59.9823 28.0533 59.9489 28.0867 59.8823 28.0867H59.1223C59.0556 28.0867 59.0223 28.0533 59.0223 27.9867V23.0967C59.0223 23.03 59.0556 22.9967 59.1223 22.9967H59.8823C59.9489 22.9967 59.9823 23.03 59.9823 23.0967V23.4567C59.9823 23.47 59.9856 23.48 59.9923 23.4867C60.0056 23.4933 60.0156 23.49 60.0223 23.4767C60.3089 23.11 60.7323 22.9267 61.2923 22.9267ZM67.5436 21.1867C67.5436 21.12 67.5769 21.0867 67.6436 21.0867H68.4036C68.4703 21.0867 68.5036 21.12 68.5036 21.1867V27.9867C68.5036 28.0533 68.4703 28.0867 68.4036 28.0867H67.6436C67.5769 28.0867 67.5436 28.0533 67.5436 27.9867V27.6567C67.5436 27.6433 67.5369 27.6333 67.5236 27.6267C67.5169 27.62 67.5069 27.6233 67.4936 27.6367C67.3469 27.8033 67.1736 27.9333 66.9736 28.0267C66.7736 28.12 66.5569 28.1667 66.3236 28.1667C65.8436 28.1667 65.4436 28.05 65.1236 27.8167C64.8103 27.5767 64.5803 27.24 64.4336 26.8067C64.3069 26.4533 64.2436 26.0267 64.2436 25.5267C64.2436 25.06 64.2969 24.6567 64.4036 24.3167C64.5436 23.8767 64.7736 23.5333 65.0936 23.2867C65.4136 23.04 65.8236 22.9167 66.3236 22.9167C66.5503 22.9167 66.7636 22.9633 66.9636 23.0567C67.1703 23.1433 67.3469 23.27 67.4936 23.4367C67.5069 23.45 67.5169 23.4533 67.5236 23.4467C67.5369 23.44 67.5436 23.43 67.5436 23.4167V21.1867ZM67.2936 26.7967C67.4469 26.5167 67.5236 26.0967 67.5236 25.5367C67.5236 24.9767 67.4403 24.55 67.2736 24.2567C67.0803 23.9167 66.7969 23.7467 66.4236 23.7467C66.0236 23.7467 65.7269 23.9067 65.5336 24.2267C65.3203 24.56 65.2136 25 65.2136 25.5467C65.2136 26.06 65.2969 26.4733 65.4636 26.7867C65.6569 27.1533 65.9736 27.3367 66.4136 27.3367C66.8003 27.3367 67.0936 27.1567 67.2936 26.7967ZM74.0309 24.9067C74.0576 25.18 74.0676 25.4867 74.0609 25.8267C74.0609 25.8933 74.0276 25.9267 73.9609 25.9267H70.7709C70.7443 25.9267 70.7309 25.94 70.7309 25.9667C70.7309 26.1933 70.7509 26.3667 70.7909 26.4867C70.8643 26.7533 71.0109 26.9633 71.2309 27.1167C71.4576 27.2633 71.7409 27.3367 72.0809 27.3367C72.5743 27.3367 72.9543 27.1333 73.2209 26.7267C73.2543 26.66 73.2976 26.65 73.3509 26.6967L73.9209 27.0767C73.9676 27.1167 73.9776 27.16 73.9509 27.2067C73.7643 27.5067 73.4976 27.7433 73.1509 27.9167C72.8109 28.09 72.4243 28.1767 71.9909 28.1767C71.5043 28.1767 71.0943 28.07 70.7609 27.8567C70.4276 27.6433 70.1776 27.34 70.0109 26.9467C69.8509 26.5533 69.7709 26.0767 69.7709 25.5167C69.7709 25.03 69.8076 24.66 69.8809 24.4067C70.0009 23.9467 70.2409 23.5833 70.6009 23.3167C70.9609 23.05 71.3976 22.9167 71.9109 22.9167C72.5843 22.9167 73.0876 23.0867 73.4209 23.4267C73.7543 23.76 73.9576 24.2533 74.0309 24.9067ZM71.9109 23.7467C71.6243 23.7467 71.3876 23.82 71.2009 23.9667C71.0143 24.1067 70.8876 24.2967 70.8209 24.5367C70.7743 24.6833 70.7443 24.87 70.7309 25.0967C70.7309 25.1233 70.7443 25.1367 70.7709 25.1367H73.0609C73.0876 25.1367 73.1009 25.1233 73.1009 25.0967C73.0876 24.8767 73.0676 24.7133 73.0409 24.6067C72.9743 24.3467 72.8409 24.14 72.6409 23.9867C72.4476 23.8267 72.2043 23.7467 71.9109 23.7467ZM77.5023 22.9467C77.7156 22.9467 77.9089 22.99 78.0823 23.0767C78.1289 23.0967 78.1456 23.1367 78.1323 23.1967L77.9723 23.9467C77.9656 24.0067 77.9256 24.0267 77.8523 24.0067C77.7389 23.96 77.6056 23.9367 77.4523 23.9367L77.3123 23.9467C76.9989 23.96 76.7389 24.07 76.5323 24.2767C76.3323 24.4767 76.2323 24.74 76.2323 25.0667V27.9867C76.2323 28.0533 76.1989 28.0867 76.1323 28.0867H75.3723C75.3056 28.0867 75.2723 28.0533 75.2723 27.9867V23.0967C75.2723 23.03 75.3056 22.9967 75.3723 22.9967H76.1323C76.1989 22.9967 76.2323 23.03 76.2323 23.0967V23.6267C76.2323 23.6467 76.2356 23.66 76.2423 23.6667C76.2556 23.6667 76.2656 23.66 76.2723 23.6467C76.5723 23.18 76.9823 22.9467 77.5023 22.9467ZM79.5632 22.1967C79.3765 22.1967 79.2232 22.1367 79.1032 22.0167C78.9832 21.8967 78.9232 21.7433 78.9232 21.5567C78.9232 21.37 78.9832 21.2167 79.1032 21.0967C79.2232 20.9767 79.3765 20.9167 79.5632 20.9167C79.7499 20.9167 79.9032 20.9767 80.0232 21.0967C80.1432 21.2167 80.2032 21.37 80.2032 21.5567C80.2032 21.7433 80.1432 21.8967 80.0232 22.0167C79.9032 22.1367 79.7499 22.1967 79.5632 22.1967ZM79.1632 28.0767C79.0965 28.0767 79.0632 28.0433 79.0632 27.9767V23.0967C79.0632 23.03 79.0965 22.9967 79.1632 22.9967H79.9232C79.9899 22.9967 80.0232 23.03 80.0232 23.0967V27.9767C80.0232 28.0433 79.9899 28.0767 79.9232 28.0767H79.1632ZM81.632 28.0867C81.5654 28.0867 81.532 28.0533 81.532 27.9867V21.1867C81.532 21.12 81.5654 21.0867 81.632 21.0867H82.392C82.4587 21.0867 82.492 21.12 82.492 21.1867V27.9867C82.492 28.0533 82.4587 28.0867 82.392 28.0867H81.632ZM87.0455 21.1867C87.0455 21.12 87.0789 21.0867 87.1455 21.0867H87.9055C87.9722 21.0867 88.0055 21.12 88.0055 21.1867V27.9867C88.0055 28.0533 87.9722 28.0867 87.9055 28.0867H87.1455C87.0789 28.0867 87.0455 28.0533 87.0455 27.9867V27.6567C87.0455 27.6433 87.0389 27.6333 87.0255 27.6267C87.0189 27.62 87.0089 27.6233 86.9955 27.6367C86.8489 27.8033 86.6755 27.9333 86.4755 28.0267C86.2755 28.12 86.0589 28.1667 85.8255 28.1667C85.3455 28.1667 84.9455 28.05 84.6255 27.8167C84.3122 27.5767 84.0822 27.24 83.9355 26.8067C83.8089 26.4533 83.7455 26.0267 83.7455 25.5267C83.7455 25.06 83.7989 24.6567 83.9055 24.3167C84.0455 23.8767 84.2755 23.5333 84.5955 23.2867C84.9155 23.04 85.3255 22.9167 85.8255 22.9167C86.0522 22.9167 86.2655 22.9633 86.4655 23.0567C86.6722 23.1433 86.8489 23.27 86.9955 23.4367C87.0089 23.45 87.0189 23.4533 87.0255 23.4467C87.0389 23.44 87.0455 23.43 87.0455 23.4167V21.1867ZM86.7955 26.7967C86.9489 26.5167 87.0255 26.0967 87.0255 25.5367C87.0255 24.9767 86.9422 24.55 86.7755 24.2567C86.5822 23.9167 86.2989 23.7467 85.9255 23.7467C85.5255 23.7467 85.2289 23.9067 85.0355 24.2267C84.8222 24.56 84.7155 25 84.7155 25.5467C84.7155 26.06 84.7989 26.4733 84.9655 26.7867C85.1589 27.1533 85.4755 27.3367 85.9155 27.3367C86.3022 27.3367 86.5955 27.1567 86.7955 26.7967ZM89.9929 22.1967C89.8062 22.1967 89.6529 22.1367 89.5329 22.0167C89.4129 21.8967 89.3529 21.7433 89.3529 21.5567C89.3529 21.37 89.4129 21.2167 89.5329 21.0967C89.6529 20.9767 89.8062 20.9167 89.9929 20.9167C90.1796 20.9167 90.3329 20.9767 90.4529 21.0967C90.5729 21.2167 90.6329 21.37 90.6329 21.5567C90.6329 21.7433 90.5729 21.8967 90.4529 22.0167C90.3329 22.1367 90.1796 22.1967 89.9929 22.1967ZM89.5929 28.0767C89.5262 28.0767 89.4929 28.0433 89.4929 27.9767V23.0967C89.4929 23.03 89.5262 22.9967 89.5929 22.9967H90.3529C90.4196 22.9967 90.4529 23.03 90.4529 23.0967V27.9767C90.4529 28.0433 90.4196 28.0767 90.3529 28.0767H89.5929ZM92.6117 28.0867C92.4251 28.0867 92.2717 28.0267 92.1517 27.9067C92.0317 27.7867 91.9717 27.6333 91.9717 27.4467C91.9717 27.26 92.0317 27.1067 92.1517 26.9867C92.2717 26.8667 92.4251 26.8067 92.6117 26.8067C92.7984 26.8067 92.9517 26.8667 93.0717 26.9867C93.1917 27.1067 93.2517 27.26 93.2517 27.4467C93.2517 27.6333 93.1917 27.7867 93.0717 27.9067C92.9517 28.0267 92.7984 28.0867 92.6117 28.0867Z" fill="black"/>
</svg>
